<mxfile host="www.draw.io" modified="2020-03-05T09:49:28.919Z" agent="Mozilla/5.0 (X11; Linux x86_64) AppleWebKit/537.36 (KHTML, like Gecko) Chrome/79.0.3945.117 Safari/537.36" etag="miMHpWyxdFobCyxnSrQ5" version="12.7.9" type="github">
  <diagram id="coTWwIEQFbWMPtfI9xUC" name="Page-1">
    <mxGraphModel dx="1371" dy="806" grid="0" gridSize="10" guides="1" tooltips="1" connect="1" arrows="1" fold="1" page="0" pageScale="1" pageWidth="827" pageHeight="1169" background="#FFFFFF" math="0" shadow="0">
      <root>
        <mxCell id="0" />
        <mxCell id="1" parent="0" />
        <mxCell id="R-gf3M13UX59Wznn8oAh-1" value="" style="rounded=0;whiteSpace=wrap;html=1;" vertex="1" parent="1">
          <mxGeometry x="105" y="140" width="120" height="60" as="geometry" />
        </mxCell>
        <mxCell id="R-gf3M13UX59Wznn8oAh-2" value="heeloo" style="text;html=1;strokeColor=none;fillColor=none;align=center;verticalAlign=middle;whiteSpace=wrap;rounded=0;" vertex="1" parent="1">
          <mxGeometry x="141" y="324" width="40" height="20" as="geometry" />
        </mxCell>
      </root>
    </mxGraphModel>
  </diagram>
</mxfile>
